<svg xmlns="http://www.w3.org/2000/svg" xmlns:xlink="http://www.w3.org/1999/xlink" viewBox="0 0 500 500"><defs><clipPath id="freepik--clip-path--inject-2"><rect x="63.93" y="379.92" width="380.15" height="46.55" style="fill:#92E3A9"></rect></clipPath></defs><g id="freepik--background-simple--inject-2"><path d="M389,105.39S331.4,56.3,256.08,63.07,159.6,106.23,135.9,146c-18.65,31.31-28.2,68.15-40,102.37-10.76,31.33-32.71,62.24-29.47,96.79,4.11,43.7,47.1,72.17,87.15,79.22,55.89,9.83,90-29.45,132.21-58.67l.24-.17a146.35,146.35,0,0,1,19.09-11.35c52.48-25.39,106.64-3.39,127.8-63.47S427,146.85,389,105.39Z" style="fill:#92E3A9"></path><path d="M389,105.39S331.4,56.3,256.08,63.07,159.6,106.23,135.9,146c-18.65,31.31-28.2,68.15-40,102.37-10.76,31.33-32.71,62.24-29.47,96.79,4.11,43.7,47.1,72.17,87.15,79.22,55.89,9.83,90-29.45,132.21-58.67l.24-.17a146.35,146.35,0,0,1,19.09-11.35c52.48-25.39,106.64-3.39,127.8-63.47S427,146.85,389,105.39Z" style="fill:#fff;opacity:0.75"></path></g><g id="freepik--Clouds--inject-2"><path d="M334.59,166.51c-4.21-2.29-6.13-.38-7.66-2.29s4.21-6.9-7.28-11.87c0,0-.76-10.73-16.46-11.11s-11.49,10.72-15.7,13.4-5.36-1.53-9.57,1.15-2.3,8-5.75,8.81-8-3.45-12.25-.77-4.21,5-6.13,5-5.74-1.53-8,0-5,3.45-5,3.45h96.88S338.8,168.81,334.59,166.51Z" style="fill:#92E3A9"></path><path d="M298.36,97.3c-2.84-1.56-4.14-.26-5.17-1.56s2.84-4.65-4.91-8c0,0-.52-7.23-11.11-7.49s-7.76,7.24-10.6,9-3.62-1-6.46.78-1.55,5.43-3.88,5.94-5.42-2.32-8.27-.51-2.84,3.36-4.13,3.36-3.88-1-5.43,0-3.36,2.32-3.36,2.32h65.39S301.2,98.85,298.36,97.3Z" style="fill:#92E3A9"></path><path d="M370.14,106.3c-4.22-2.3-6.13-.38-7.66-2.3s4.21-6.89-7.28-11.87c0,0-.76-10.72-16.46-11.1S327.25,91.75,323,94.43s-5.36-1.53-9.57,1.15-2.3,8-5.75,8.8-8-3.44-12.25-.76-4.21,5-6.13,5-5.74-1.54-8,0-5,3.44-5,3.44H373.2S374.35,108.6,370.14,106.3Z" style="fill:#92E3A9"></path><path d="M243.18,131.69c-4.21-2.3-6.13-.38-7.66-2.3s4.21-6.89-7.28-11.87c0,0-.76-10.72-16.46-11.1s-11.49,10.72-15.7,13.4-5.36-1.53-9.57,1.15-2.3,8-5.75,8.81-8-3.45-12.25-.77-4.21,5-6.13,5-5.74-1.53-8,0-5,3.44-5,3.44h96.88S247.39,134,243.18,131.69Z" style="fill:#92E3A9"></path><g style="opacity:0.4"><path d="M334.59,166.51c-4.21-2.29-6.13-.38-7.66-2.29s4.21-6.9-7.28-11.87c0,0-.76-10.73-16.46-11.11s-11.49,10.72-15.7,13.4-5.36-1.53-9.57,1.15-2.3,8-5.75,8.81-8-3.45-12.25-.77-4.21,5-6.13,5-5.74-1.53-8,0-5,3.45-5,3.45h96.88S338.8,168.81,334.59,166.51Z" style="fill:#fff"></path><path d="M298.36,97.3c-2.84-1.56-4.14-.26-5.17-1.56s2.84-4.65-4.91-8c0,0-.52-7.23-11.11-7.49s-7.76,7.24-10.6,9-3.62-1-6.46.78-1.55,5.43-3.88,5.94-5.42-2.32-8.27-.51-2.84,3.36-4.13,3.36-3.88-1-5.43,0-3.36,2.32-3.36,2.32h65.39S301.2,98.85,298.36,97.3Z" style="fill:#fff"></path><path d="M370.14,106.3c-4.22-2.3-6.13-.38-7.66-2.3s4.21-6.89-7.28-11.87c0,0-.76-10.72-16.46-11.1S327.25,91.75,323,94.43s-5.36-1.53-9.57,1.15-2.3,8-5.75,8.8-8-3.44-12.25-.76-4.21,5-6.13,5-5.74-1.54-8,0-5,3.44-5,3.44H373.2S374.35,108.6,370.14,106.3Z" style="fill:#fff"></path><path d="M243.18,131.69c-4.21-2.3-6.13-.38-7.66-2.3s4.21-6.89-7.28-11.87c0,0-.76-10.72-16.46-11.1s-11.49,10.72-15.7,13.4-5.36-1.53-9.57,1.15-2.3,8-5.75,8.81-8-3.45-12.25-.77-4.21,5-6.13,5-5.74-1.53-8,0-5,3.44-5,3.44h96.88S247.39,134,243.18,131.69Z" style="fill:#fff"></path></g></g><g id="freepik--Buildings--inject-2"><rect x="247.51" y="262.34" width="49.48" height="118.29" style="fill:#fff;stroke:#263238;stroke-linecap:round;stroke-linejoin:round"></rect><rect x="247.51" y="262.34" width="49.48" height="5.85" style="fill:#fff;stroke:#263238;stroke-linecap:round;stroke-linejoin:round"></rect><path d="M247.51,275.11H260a7.3,7.3,0,0,1,7.3,7.3v6.27a0,0,0,0,1,0,0H247.51a0,0,0,0,1,0,0V275.11A0,0,0,0,1,247.51,275.11Z" style="fill:#263238;stroke:#263238;stroke-linecap:round;stroke-linejoin:round"></path><path d="M276.88,275.11H296a0,0,0,0,1,0,0v13.57a0,0,0,0,1,0,0H269.58a0,0,0,0,1,0,0v-6.27A7.3,7.3,0,0,1,276.88,275.11Z" style="fill:#263238;stroke:#263238;stroke-linecap:round;stroke-linejoin:round"></path><rect x="247.51" y="288.34" width="49.48" height="5.85" style="fill:#fff;stroke:#263238;stroke-linecap:round;stroke-linejoin:round"></rect><path d="M247.51,297.18H260a7.3,7.3,0,0,1,7.3,7.3v6.27a0,0,0,0,1,0,0H247.51a0,0,0,0,1,0,0V297.18A0,0,0,0,1,247.51,297.18Z" style="fill:#263238;stroke:#263238;stroke-linecap:round;stroke-linejoin:round"></path><path d="M276.88,297.18H296a0,0,0,0,1,0,0v13.57a0,0,0,0,1,0,0H269.58a0,0,0,0,1,0,0v-6.27A7.3,7.3,0,0,1,276.88,297.18Z" style="fill:#263238;stroke:#263238;stroke-linecap:round;stroke-linejoin:round"></path><rect x="247.51" y="310.4" width="49.48" height="5.85" style="fill:#fff;stroke:#263238;stroke-linecap:round;stroke-linejoin:round"></rect><path d="M247.51,319.25H260a7.3,7.3,0,0,1,7.3,7.3v6.27a0,0,0,0,1,0,0H247.51a0,0,0,0,1,0,0V319.25A0,0,0,0,1,247.51,319.25Z" style="fill:#263238;stroke:#263238;stroke-linecap:round;stroke-linejoin:round"></path><path d="M276.88,319.25H296a0,0,0,0,1,0,0v13.57a0,0,0,0,1,0,0H269.58a0,0,0,0,1,0,0v-6.27A7.3,7.3,0,0,1,276.88,319.25Z" style="fill:#263238;stroke:#263238;stroke-linecap:round;stroke-linejoin:round"></path><rect x="247.51" y="332.47" width="49.48" height="5.85" style="fill:#fff;stroke:#263238;stroke-linecap:round;stroke-linejoin:round"></rect><path d="M247.51,341.32H260a7.3,7.3,0,0,1,7.3,7.3v6.27a0,0,0,0,1,0,0H247.51a0,0,0,0,1,0,0V341.32A0,0,0,0,1,247.51,341.32Z" style="fill:#263238;stroke:#263238;stroke-linecap:round;stroke-linejoin:round"></path><path d="M276.88,341.32H296a0,0,0,0,1,0,0v13.57a0,0,0,0,1,0,0H269.58a0,0,0,0,1,0,0v-6.27A7.3,7.3,0,0,1,276.88,341.32Z" style="fill:#263238;stroke:#263238;stroke-linecap:round;stroke-linejoin:round"></path><rect x="247.51" y="354.54" width="49.48" height="5.85" style="fill:#fff;stroke:#263238;stroke-linecap:round;stroke-linejoin:round"></rect><rect x="215.61" y="227.25" width="37.3" height="155.47" style="fill:#fff;stroke:#263238;stroke-linecap:round;stroke-linejoin:round"></rect><rect x="243.69" y="355.06" width="4.44" height="5.92" style="fill:#263238;stroke:#263238;stroke-linecap:round;stroke-linejoin:round"></rect><rect x="231.47" y="355.06" width="4.44" height="5.92" style="fill:#263238;stroke:#263238;stroke-linecap:round;stroke-linejoin:round"></rect><rect x="219.26" y="355.06" width="4.44" height="5.92" style="fill:#263238;stroke:#263238;stroke-linecap:round;stroke-linejoin:round"></rect><rect x="243.69" y="331.74" width="4.44" height="5.92" style="fill:#263238;stroke:#263238;stroke-linecap:round;stroke-linejoin:round"></rect><rect x="231.47" y="331.74" width="4.44" height="5.92" style="fill:#263238;stroke:#263238;stroke-linecap:round;stroke-linejoin:round"></rect><rect x="219.26" y="331.74" width="4.44" height="5.92" style="fill:#263238;stroke:#263238;stroke-linecap:round;stroke-linejoin:round"></rect><rect x="243.69" y="308.05" width="4.44" height="5.92" style="fill:#263238;stroke:#263238;stroke-linecap:round;stroke-linejoin:round"></rect><rect x="231.47" y="308.05" width="4.44" height="5.92" style="fill:#263238;stroke:#263238;stroke-linecap:round;stroke-linejoin:round"></rect><rect x="219.26" y="308.05" width="4.44" height="5.92" style="fill:#263238;stroke:#263238;stroke-linecap:round;stroke-linejoin:round"></rect><rect x="243.69" y="284.36" width="4.44" height="5.92" style="fill:#263238;stroke:#263238;stroke-linecap:round;stroke-linejoin:round"></rect><rect x="231.47" y="284.36" width="4.44" height="5.92" style="fill:#263238;stroke:#263238;stroke-linecap:round;stroke-linejoin:round"></rect><rect x="219.26" y="284.36" width="4.44" height="5.92" style="fill:#263238;stroke:#263238;stroke-linecap:round;stroke-linejoin:round"></rect><rect x="243.69" y="260.67" width="4.44" height="5.92" style="fill:#263238;stroke:#263238;stroke-linecap:round;stroke-linejoin:round"></rect><rect x="231.47" y="260.67" width="4.44" height="5.92" style="fill:#263238;stroke:#263238;stroke-linecap:round;stroke-linejoin:round"></rect><rect x="219.26" y="260.67" width="4.44" height="5.92" style="fill:#263238;stroke:#263238;stroke-linecap:round;stroke-linejoin:round"></rect><rect x="243.69" y="236.98" width="4.44" height="5.92" style="fill:#263238;stroke:#263238;stroke-linecap:round;stroke-linejoin:round"></rect><rect x="231.47" y="236.98" width="4.44" height="5.92" style="fill:#263238;stroke:#263238;stroke-linecap:round;stroke-linejoin:round"></rect><rect x="219.26" y="236.98" width="4.44" height="5.92" style="fill:#263238;stroke:#263238;stroke-linecap:round;stroke-linejoin:round"></rect><rect x="214.45" y="227.25" width="39.61" height="4.55" style="fill:#fff;stroke:#263238;stroke-linecap:round;stroke-linejoin:round"></rect><rect x="214.45" y="250.57" width="39.61" height="4.55" style="fill:#fff;stroke:#263238;stroke-linecap:round;stroke-linejoin:round"></rect><rect x="214.45" y="273.89" width="39.61" height="4.55" style="fill:#fff;stroke:#263238;stroke-linecap:round;stroke-linejoin:round"></rect><rect x="214.45" y="297.21" width="39.61" height="4.55" style="fill:#fff;stroke:#263238;stroke-linecap:round;stroke-linejoin:round"></rect><rect x="214.45" y="320.53" width="39.61" height="4.55" style="fill:#fff;stroke:#263238;stroke-linecap:round;stroke-linejoin:round"></rect><rect x="214.45" y="343.85" width="39.61" height="4.55" style="fill:#fff;stroke:#263238;stroke-linecap:round;stroke-linejoin:round"></rect><rect x="215.61" y="364.58" width="37.3" height="4.55" style="fill:#fff;stroke:#263238;stroke-linecap:round;stroke-linejoin:round"></rect><rect x="213.64" y="358.64" width="83.35" height="22" style="fill:#fff;stroke:#263238;stroke-linecap:round;stroke-linejoin:round"></rect><rect x="213.64" y="358.64" width="33.62" height="22" style="fill:#263238;stroke:#263238;stroke-linecap:round;stroke-linejoin:round"></rect><rect x="283.33" y="122" width="140.27" height="258.64" style="fill:#263238;stroke:#263238;stroke-linecap:round;stroke-linejoin:round"></rect><rect x="320.4" y="122" width="103.2" height="258.64" style="fill:#fff;stroke:#263238;stroke-linecap:round;stroke-linejoin:round"></rect><rect x="344.87" y="355.92" width="78.73" height="24.72" style="fill:#263238;stroke:#263238;stroke-linecap:round;stroke-linejoin:round"></rect><rect x="363.08" y="355.92" width="4.28" height="24.72" style="fill:#fff;stroke:#263238;stroke-linecap:round;stroke-linejoin:round"></rect><rect x="385.19" y="355.92" width="4.28" height="24.72" style="fill:#fff;stroke:#263238;stroke-linecap:round;stroke-linejoin:round"></rect><rect x="407.29" y="355.92" width="4.28" height="24.72" style="fill:#fff;stroke:#263238;stroke-linecap:round;stroke-linejoin:round"></rect><line x1="359.69" y1="355.92" x2="359.69" y2="122.6" style="fill:none;stroke:#263238;stroke-linecap:round;stroke-linejoin:round"></line><line x1="307.02" y1="381.52" x2="307.02" y2="122.6" style="fill:none;stroke:#fff;stroke-linecap:round;stroke-linejoin:round"></line><line x1="294.26" y1="381.52" x2="294.26" y2="122.6" style="fill:none;stroke:#fff;stroke-linecap:round;stroke-linejoin:round"></line><line x1="398.88" y1="355.92" x2="398.88" y2="122.6" style="fill:none;stroke:#263238;stroke-linecap:round;stroke-linejoin:round"></line><line x1="320.93" y1="149.13" x2="423" y2="149.13" style="fill:none;stroke:#263238;stroke-linecap:round;stroke-linejoin:round"></line><line x1="320.93" y1="183.49" x2="423" y2="183.49" style="fill:none;stroke:#263238;stroke-linecap:round;stroke-linejoin:round"></line><line x1="320.93" y1="217.86" x2="423" y2="217.86" style="fill:none;stroke:#263238;stroke-linecap:round;stroke-linejoin:round"></line><line x1="320.93" y1="252.22" x2="423" y2="252.22" style="fill:none;stroke:#263238;stroke-linecap:round;stroke-linejoin:round"></line><line x1="320.93" y1="286.59" x2="423" y2="286.59" style="fill:none;stroke:#263238;stroke-linecap:round;stroke-linejoin:round"></line><line x1="320.93" y1="320.95" x2="423" y2="320.95" style="fill:none;stroke:#263238;stroke-linecap:round;stroke-linejoin:round"></line><line x1="320.93" y1="149.13" x2="283.16" y2="149.13" style="fill:none;stroke:#fff;stroke-linecap:round;stroke-linejoin:round"></line><line x1="320.93" y1="183.49" x2="283.16" y2="183.49" style="fill:none;stroke:#fff;stroke-linecap:round;stroke-linejoin:round"></line><line x1="320.93" y1="217.86" x2="283.16" y2="217.86" style="fill:none;stroke:#fff;stroke-linecap:round;stroke-linejoin:round"></line><line x1="320.93" y1="252.22" x2="283.16" y2="252.22" style="fill:none;stroke:#fff;stroke-linecap:round;stroke-linejoin:round"></line><line x1="320.93" y1="286.59" x2="283.16" y2="286.59" style="fill:none;stroke:#fff;stroke-linecap:round;stroke-linejoin:round"></line><line x1="320.93" y1="320.95" x2="283.16" y2="320.95" style="fill:none;stroke:#fff;stroke-linecap:round;stroke-linejoin:round"></line><line x1="283.73" y1="355.32" x2="423" y2="355.32" style="fill:none;stroke:#263238;stroke-linecap:round;stroke-linejoin:round"></line><rect x="96.13" y="137.47" width="123.15" height="243.16" style="fill:#263238;stroke:#263238;stroke-linecap:round;stroke-linejoin:round"></rect><line x1="131.47" y1="163.48" x2="96.75" y2="163.48" style="fill:none;stroke:#fff;stroke-linecap:round;stroke-linejoin:round"></line><line x1="131.47" y1="204.81" x2="96.75" y2="204.81" style="fill:none;stroke:#fff;stroke-linecap:round;stroke-linejoin:round"></line><line x1="131.47" y1="247.73" x2="96.75" y2="247.73" style="fill:none;stroke:#fff;stroke-linecap:round;stroke-linejoin:round"></line><line x1="131.47" y1="292.25" x2="96.75" y2="292.25" style="fill:none;stroke:#fff;stroke-linecap:round;stroke-linejoin:round"></line><line x1="131.47" y1="333.58" x2="96.75" y2="333.58" style="fill:none;stroke:#fff;stroke-linecap:round;stroke-linejoin:round"></line><rect x="131.36" y="137.47" width="87.92" height="243.16" style="fill:#fff;stroke:#263238;stroke-linecap:round;stroke-linejoin:round"></rect><rect x="131.36" y="137.47" width="87.92" height="13.68" style="fill:#263238;stroke:#263238;stroke-linecap:round;stroke-linejoin:round"></rect><rect x="131.36" y="180.04" width="87.92" height="13.68" style="fill:#263238;stroke:#263238;stroke-linecap:round;stroke-linejoin:round"></rect><rect x="131.36" y="223.66" width="87.92" height="13.68" style="fill:#263238;stroke:#263238;stroke-linecap:round;stroke-linejoin:round"></rect><rect x="131.36" y="266.22" width="87.92" height="13.68" style="fill:#263238;stroke:#263238;stroke-linecap:round;stroke-linejoin:round"></rect><rect x="131.36" y="353.32" width="87.92" height="11.7" style="fill:#263238;stroke:#263238;stroke-linecap:round;stroke-linejoin:round"></rect><rect x="131.36" y="308.79" width="87.92" height="13.68" style="fill:#263238;stroke:#263238;stroke-linecap:round;stroke-linejoin:round"></rect><rect x="155.69" y="356.72" width="35.15" height="23.92" style="fill:#263238;stroke:#263238;stroke-linecap:round;stroke-linejoin:round"></rect><line x1="147.58" y1="144.94" x2="147.58" y2="355.37" style="fill:none;stroke:#263238;stroke-linecap:round;stroke-linejoin:round"></line><line x1="174.62" y1="144.94" x2="174.62" y2="355.37" style="fill:none;stroke:#263238;stroke-linecap:round;stroke-linejoin:round"></line><line x1="201.65" y1="144.94" x2="201.65" y2="355.37" style="fill:none;stroke:#263238;stroke-linecap:round;stroke-linejoin:round"></line><line x1="105.68" y1="144.94" x2="105.68" y2="355.37" style="fill:none;stroke:#fff;stroke-linecap:round;stroke-linejoin:round"></line><line x1="114.24" y1="144.94" x2="114.24" y2="355.37" style="fill:none;stroke:#fff;stroke-linecap:round;stroke-linejoin:round"></line><line x1="122.8" y1="144.94" x2="122.8" y2="355.37" style="fill:none;stroke:#fff;stroke-linecap:round;stroke-linejoin:round"></line><rect x="91.42" y="134.68" width="131.86" height="11.62" style="fill:#263238;stroke:#263238;stroke-linecap:round;stroke-linejoin:round"></rect><rect x="127.3" y="134.68" width="95.97" height="11.62" style="fill:#fff;stroke:#263238;stroke-linecap:round;stroke-linejoin:round"></rect><rect x="91.42" y="177.93" width="131.86" height="11.62" style="fill:#263238;stroke:#263238;stroke-linecap:round;stroke-linejoin:round"></rect><rect x="127.3" y="177.93" width="95.97" height="11.62" style="fill:#fff;stroke:#263238;stroke-linecap:round;stroke-linejoin:round"></rect><rect x="91.42" y="221.19" width="131.86" height="11.62" style="fill:#263238;stroke:#263238;stroke-linecap:round;stroke-linejoin:round"></rect><rect x="127.3" y="221.19" width="95.97" height="11.62" style="fill:#fff;stroke:#263238;stroke-linecap:round;stroke-linejoin:round"></rect><rect x="91.42" y="264.44" width="131.86" height="11.62" style="fill:#263238;stroke:#263238;stroke-linecap:round;stroke-linejoin:round"></rect><rect x="127.3" y="264.44" width="95.97" height="11.62" style="fill:#fff;stroke:#263238;stroke-linecap:round;stroke-linejoin:round"></rect><rect x="91.42" y="307.7" width="131.86" height="11.62" style="fill:#263238;stroke:#263238;stroke-linecap:round;stroke-linejoin:round"></rect><rect x="127.3" y="307.7" width="95.97" height="11.62" style="fill:#fff;stroke:#263238;stroke-linecap:round;stroke-linejoin:round"></rect><rect x="91.42" y="350.96" width="131.86" height="11.62" style="fill:#263238;stroke:#263238;stroke-linecap:round;stroke-linejoin:round"></rect><rect x="127.3" y="350.96" width="95.97" height="11.62" style="fill:#fff;stroke:#263238;stroke-linecap:round;stroke-linejoin:round"></rect><line x1="131.47" y1="163.48" x2="218.53" y2="163.48" style="fill:none;stroke:#263238;stroke-linecap:round;stroke-linejoin:round"></line><line x1="131.47" y1="204.81" x2="218.53" y2="204.81" style="fill:none;stroke:#263238;stroke-linecap:round;stroke-linejoin:round"></line><line x1="131.47" y1="247.73" x2="218.53" y2="247.73" style="fill:none;stroke:#263238;stroke-linecap:round;stroke-linejoin:round"></line><line x1="131.47" y1="292.25" x2="218.53" y2="292.25" style="fill:none;stroke:#263238;stroke-linecap:round;stroke-linejoin:round"></line><line x1="131.47" y1="333.58" x2="218.53" y2="333.58" style="fill:none;stroke:#263238;stroke-linecap:round;stroke-linejoin:round"></line><rect x="131.71" y="374.39" width="81.51" height="2.87" style="fill:#92E3A9;stroke:#263238;stroke-linecap:round;stroke-linejoin:round"></rect><rect x="131.71" y="377.26" width="105.56" height="4.31" style="fill:#92E3A9;stroke:#263238;stroke-linecap:round;stroke-linejoin:round"></rect></g><g id="freepik--Trees--inject-2"><path d="M122.59,352.72s14.4,1.43,21.7,10.36c0,0,7.71-10.35,21.57-10.14a28,28,0,1,0-43.28-.19Z" style="fill:#92E3A9"></path><path d="M122.59,352.72s14.4,1.43,21.7,10.36c0,0,7.71-10.35,21.57-10.14a28,28,0,1,0-43.28-.19Z" style="fill:#fff;opacity:0.5"></path><polygon points="143.81 309.06 143.33 381.26 145.76 381.26 143.81 309.06" style="fill:#263238"></polygon><path d="M144.54,360.35s4.87-8.75,13.62-11.42c0,0-9.24,2.19-13.86,9.72Z" style="fill:#263238"></path><path d="M144.54,335.56s4.87-8.76,13.62-11.43c0,0-9.24,2.19-13.86,9.72Z" style="fill:#263238"></path><path d="M144.54,348s4.87-8.76,13.62-11.43c0,0-9.24,2.19-13.86,9.72Z" style="fill:#263238"></path><path d="M143.82,341.88s-4.69-8.75-13.13-11.43c0,0,8.91,2.19,13.37,9.73Z" style="fill:#263238"></path><path d="M143.82,354s-4.69-8.75-13.13-11.42c0,0,8.91,2.19,13.37,9.72Z" style="fill:#263238"></path><path d="M190.43,347.25s17.16,1.7,25.87,12.34c0,0,9.19-12.33,25.7-12.08a33.36,33.36,0,1,0-51.58-.23Z" style="fill:#92E3A9"></path><path d="M190.43,347.25s17.16,1.7,25.87,12.34c0,0,9.19-12.33,25.7-12.08a33.36,33.36,0,1,0-51.58-.23Z" style="fill:#fff;opacity:0.5"></path><polygon points="215.73 295.21 215.15 381.26 218.04 381.26 215.73 295.21" style="fill:#263238"></polygon><path d="M216.6,356.34s5.79-10.43,16.22-13.61c0,0-11,2.6-16.51,11.59Z" style="fill:#263238"></path><path d="M216.6,326.79s5.79-10.43,16.22-13.62c0,0-11,2.61-16.51,11.59Z" style="fill:#263238"></path><path d="M216.6,341.57s5.79-10.43,16.22-13.62c0,0-11,2.61-16.51,11.59Z" style="fill:#263238"></path><path d="M215.74,334.32s-5.59-10.43-15.66-13.61c0,0,10.63,2.6,15.94,11.59Z" style="fill:#263238"></path><path d="M215.74,348.81s-5.59-10.43-15.66-13.62c0,0,10.63,2.61,15.94,11.59Z" style="fill:#263238"></path><path d="M259.52,357.19s12.16,1.2,18.31,8.73a23.52,23.52,0,0,1,18.2-8.55,23.62,23.62,0,1,0-36.51-.16Z" style="fill:#92E3A9"></path><path d="M259.52,357.19s12.16,1.2,18.31,8.73a23.52,23.52,0,0,1,18.2-8.55,23.62,23.62,0,1,0-36.51-.16Z" style="fill:#fff;opacity:0.5"></path><polygon points="277.43 320.35 277.02 381.26 279.07 381.26 277.43 320.35" style="fill:#263238"></polygon><path d="M278.05,363.62s4.1-7.38,11.48-9.63c0,0-7.79,1.84-11.69,8.2Z" style="fill:#263238"></path><path d="M278.05,342.71s4.1-7.39,11.48-9.64c0,0-7.79,1.84-11.69,8.2Z" style="fill:#263238"></path><path d="M278.05,353.17s4.1-7.39,11.48-9.64c0,0-7.79,1.84-11.69,8.2Z" style="fill:#263238"></path><path d="M277.44,348s-4-7.39-11.08-9.64c0,0,7.52,1.84,11.28,8.2Z" style="fill:#263238"></path><path d="M277.44,358.29s-4-7.38-11.08-9.64c0,0,7.52,1.85,11.28,8.21Z" style="fill:#263238"></path></g><g id="freepik--Streetlights--inject-2"><rect x="332.04" y="324.05" width="1.78" height="56.22" style="fill:#fff;stroke:#263238;stroke-linecap:round;stroke-linejoin:round"></rect><path d="M329.87,324.44a1.08,1.08,0,0,0-.1.43c0,1,1.45,1.83,3.23,1.83s3.22-.82,3.22-1.83a1.08,1.08,0,0,0-.1-.43Z" style="fill:#fff;stroke:#263238;stroke-linecap:round;stroke-linejoin:round"></path><polygon points="332.93 322.52 326.51 324.66 339.35 324.66 332.93 322.52" style="fill:#fff;stroke:#263238;stroke-linecap:round;stroke-linejoin:round"></polygon><rect x="406.75" y="324.05" width="1.78" height="56.22" style="fill:#fff;stroke:#263238;stroke-linecap:round;stroke-linejoin:round"></rect><path d="M404.57,324.44a1.08,1.08,0,0,0-.1.43c0,1,1.45,1.83,3.23,1.83s3.22-.82,3.22-1.83a1.08,1.08,0,0,0-.1-.43Z" style="fill:#fff;stroke:#263238;stroke-linecap:round;stroke-linejoin:round"></path><polygon points="407.63 322.52 401.21 324.66 414.06 324.66 407.63 322.52" style="fill:#fff;stroke:#263238;stroke-linecap:round;stroke-linejoin:round"></polygon><rect x="182.64" y="324.05" width="1.78" height="56.22" style="fill:#fff;stroke:#263238;stroke-linecap:round;stroke-linejoin:round"></rect><path d="M180.47,324.44a1.08,1.08,0,0,0-.1.43c0,1,1.44,1.83,3.23,1.83s3.22-.82,3.22-1.83a1.08,1.08,0,0,0-.1-.43Z" style="fill:#fff;stroke:#263238;stroke-linecap:round;stroke-linejoin:round"></path><polygon points="183.53 322.52 177.11 324.66 189.95 324.66 183.53 322.52" style="fill:#fff;stroke:#263238;stroke-linecap:round;stroke-linejoin:round"></polygon><rect x="107.94" y="324.05" width="1.78" height="56.22" style="fill:#fff;stroke:#263238;stroke-linecap:round;stroke-linejoin:round"></rect><path d="M105.77,324.44a1.08,1.08,0,0,0-.1.43c0,1,1.44,1.83,3.22,1.83s3.23-.82,3.23-1.83a1.08,1.08,0,0,0-.1-.43Z" style="fill:#fff;stroke:#263238;stroke-linecap:round;stroke-linejoin:round"></path><polygon points="108.83 322.52 102.41 324.66 115.25 324.66 108.83 322.52" style="fill:#fff;stroke:#263238;stroke-linecap:round;stroke-linejoin:round"></polygon><rect x="257.34" y="324.05" width="1.78" height="56.22" style="fill:#fff;stroke:#263238;stroke-linecap:round;stroke-linejoin:round"></rect><path d="M255.17,324.44a1.08,1.08,0,0,0-.1.43c0,1,1.45,1.83,3.23,1.83s3.22-.82,3.22-1.83a1.08,1.08,0,0,0-.1-.43Z" style="fill:#fff;stroke:#263238;stroke-linecap:round;stroke-linejoin:round"></path><polygon points="258.23 322.52 251.81 324.66 264.65 324.66 258.23 322.52" style="fill:#fff;stroke:#263238;stroke-linecap:round;stroke-linejoin:round"></polygon></g><g id="freepik--Floor--inject-2"><rect x="63.93" y="379.92" width="380.15" height="46.55" style="fill:#92E3A9"></rect><g style="clip-path:url(#freepik--clip-path--inject-2)"><rect x="63.93" y="379.92" width="380.15" height="46.55" style="fill:#fff;opacity:0.5"></rect></g></g><g id="freepik--Character--inject-2"><path d="M323,402.41c0,2.3,14.25,4.16,31.82,4.16s31.82-1.86,31.82-4.16-14.25-4.16-31.82-4.16S323,400.11,323,402.41Z" style="fill:#263238"></path><path d="M345.5,244.28s-.16,4.42.47,6,1.73,2.21,1.73,3.63a26.65,26.65,0,0,1-.63,3.62c0,.48,2.68,1,2.68,1s3,5,3.78,5h0a2.15,2.15,0,0,0,1.39-.51l3.81-3.27a75,75,0,0,1,4.1,7.72c.63,1.89.95,3.15.95,3.15l4.73-7.09s-3.63-6.14-3.94-7.88,4.88-5.83,3.15-12.45a12.06,12.06,0,0,0-14.5-8.35c-5.52,1.57-11,3.47-12.14,5.51S345.5,244.28,345.5,244.28Z" style="fill:#fff;stroke:#263238;stroke-linecap:round;stroke-linejoin:round"></path><path d="M347.87,251.66s-.55-.64.09-.82a4.93,4.93,0,0,1,1.82.09" style="fill:#fff;stroke:#263238;stroke-linecap:round;stroke-linejoin:round"></path><line x1="349.33" y1="252.75" x2="349.6" y2="253.94" style="fill:#fff;stroke:#263238;stroke-linecap:round;stroke-linejoin:round"></line><path d="M349.23,254.3a3.11,3.11,0,0,0,1.92-1" style="fill:#fff;stroke:#263238;stroke-linecap:round;stroke-linejoin:round"></path><path d="M366.61,248.7s3.79,2.36,4.42,5.36,4.1,22.06,6.3,29.78,7.72,10.25,12.14,8,6-8.51,3.94-11.35-6.15-3.46-6.15-7.72,3.94-9.14-.47-15.6-11.66-6.31-14.66-7.09a10,10,0,0,1-4.57-2.53Z" style="fill:#263238;stroke:#263238;stroke-linecap:round;stroke-linejoin:round"></path><path d="M390.12,288.54a4.33,4.33,0,0,1-.46,1.09" style="fill:#263238;stroke:#fff;stroke-linecap:round;stroke-linejoin:round;stroke-width:0.5px"></path><path d="M369.17,249.75s.19,2.82,7.2,4.73,11.47,6.92,10.56,12.11-6.19,9.29-3.91,12.84c1.82,2.85,6.71,4.71,7.19,7.73" style="fill:#263238;stroke:#fff;stroke-linecap:round;stroke-linejoin:round;stroke-width:0.5px"></path><path d="M383,271.24a7.1,7.1,0,0,1-.57,1.64" style="fill:#263238;stroke:#fff;stroke-linecap:round;stroke-linejoin:round;stroke-width:0.5px"></path><path d="M371.54,254a11.88,11.88,0,0,0,5.83,6.83,10.19,10.19,0,0,1,5.74,8.88" style="fill:#263238;stroke:#fff;stroke-linecap:round;stroke-linejoin:round;stroke-width:0.5px"></path><path d="M364.56,255.53c-.12-1.78,4.86-5.85,3.16-12.35a12.06,12.06,0,0,0-14.5-8.35c-5.52,1.57-11,3.47-12.14,5.51s4.42,3.94,4.42,3.94,4.09,6.78,13.08,4.1C358.58,248.38,361.25,253.21,364.56,255.53Z" style="fill:#263238;stroke:#263238;stroke-linecap:round;stroke-linejoin:round"></path><path d="M365.07,246.68a3.32,3.32,0,0,1,1,.61" style="fill:#263238;stroke:#fff;stroke-linecap:round;stroke-linejoin:round;stroke-width:0.5px"></path><path d="M345.5,241.55s2.1,3.46,7.56,4.28c3.84.58,7.6.07,10.28.42" style="fill:#263238;stroke:#fff;stroke-linecap:round;stroke-linejoin:round;stroke-width:0.5px"></path><path d="M348.79,240.45a14.15,14.15,0,0,0,8.09,3.83c6.29.73,9.2-.91,11,.82" style="fill:#263238;stroke:#fff;stroke-linecap:round;stroke-linejoin:round;stroke-width:0.5px"></path><path d="M347.32,238.82a9.25,9.25,0,0,0,.61.75" style="fill:#263238;stroke:#fff;stroke-linecap:round;stroke-linejoin:round;stroke-width:0.5px"></path><path d="M357.79,250.75s.79-3.79,3-3.63,1.89,3.15,1.26,5.52-2.83.94-2.83.94" style="fill:#fff;stroke:#263238;stroke-linecap:round;stroke-linejoin:round"></path><path d="M381.73,390a41.51,41.51,0,0,1-2.47,6.24c-1.05,1.69-3.39,3.25-3.52,4.29s1.43,1,3,.52,3.64-.81,5.07-2,4-4.65,5.86-5.3,1.82-2.86.78-4.17-4.35-2.81-4.35-2.81Z" style="fill:#92E3A9;stroke:#263238;stroke-linecap:round;stroke-linejoin:round"></path><path d="M378.73,401c1.57-.52,3.64-.81,5.07-2s4-4.65,5.86-5.3a2.39,2.39,0,0,0,1.28-3.27l-.53.33c-2.49,1.62-3.74,4.12-7.86,6.74a18.66,18.66,0,0,1-6.81,3C375.61,401.54,377.17,401.54,378.73,401Z" style="fill:#263238;stroke:#263238;stroke-linecap:round;stroke-linejoin:round"></path><path d="M373.74,368c-4.06-5.79-12.74-17.18-12.74-17.18l5.21-26.45-12.55-.57s-2.51,20.07-3.48,26.83,4.64,11.58,6.18,12.74c1.14.85,14.63,14.06,21.74,21,.4,1.25.77,2.85,1,3.44a12,12,0,0,0,2.6,2.61l4.36-3.73S377.79,373.83,373.74,368Z" style="fill:#263238;stroke:#263238;stroke-linecap:round;stroke-linejoin:round"></path><path d="M353.08,316.88s1,23.55,1.74,31.66,6.18,21.23,6.95,25.29,7.33,21.62,7.33,21.62l5.8,1.15s1-3.47-.2-5.21a18.86,18.86,0,0,1-1.93-4.44S369.3,366.1,368,360.5s-2.9-11.77-2.51-13.51,2.89-18.15,3.08-18.92,5.41-5,6.18-9.84S373,308,373,308l-17-1.16Z" style="fill:#263238;stroke:#263238;stroke-linecap:round;stroke-linejoin:round"></path><line x1="370.82" y1="375.65" x2="368.55" y2="362.01" style="fill:#263238;stroke:#fff;stroke-linecap:round;stroke-linejoin:round"></line><path d="M353.85,326.33s-.19,21.05,1,25.1S358.29,364,358.29,364" style="fill:#263238;stroke:#fff;stroke-linecap:round;stroke-linejoin:round"></path><path d="M357.38,296.2l-13.72-7s-5.16-4.33-7.62-4.33-6.33-.35-3.64,2.58,10.56,5,10.56,5L357,303Z" style="fill:#fff;stroke:#263238;stroke-linecap:round;stroke-linejoin:round"></path><path d="M331.18,281.25l-2.66,2.33a.75.75,0,0,0,.15,1.23l9.94,5.28a.77.77,0,0,0,1-.24l1.83-2.63a.75.75,0,0,0-.25-1.09l-9.12-5A.76.76,0,0,0,331.18,281.25Z" style="fill:#263238;stroke:#263238;stroke-linecap:round;stroke-linejoin:round"></path><path d="M365.61,262.6A121.67,121.67,0,0,0,357,274.42c-3.16,5.2-5.36,7.41-4.1,9.61s3.78,8.83,3.78,8.83-1.26,9.77-2.21,13.87-4.25,12.92-4.25,12.92l13.71,3,6.3-12.14,3.16,12.92,8-2.2s-5.67-25.69-7.09-29.63,3.31-10.56,1-21S368.45,259.76,365.61,262.6Z" style="fill:#92E3A9;stroke:#263238;stroke-linecap:round;stroke-linejoin:round"></path><path d="M385,288.6c-3-6.77-8.67-21.75-11-25.53s-4.73-2.52-4.73-2.52c3.47-1.1,6.62,7.72,6.62,7.72l8.67,22.54s-6.47,4.1-13.08,4.57-8.2-1.89-8.2-1.89.16-15.6,1.73-22.38a32.37,32.37,0,0,1,4.26-10.56,16,16,0,0,0-5.36,7.88c-1.58,5.2-1.89,18.91-2.05,26.95s-.94,18.6,1.89,20.49,11.19,1.89,17.65.16,10.72-4.42,10.88-7.88S388,295.38,385,288.6Z" style="fill:#fff;stroke:#263238;stroke-linecap:round;stroke-linejoin:round"></path><path d="M385.74,290.27c-.24.11-.68.3-1.22.52v0s-6.47,4.1-13.08,4.57-8.2-1.89-8.2-1.89,2.36,15.6,4.57,18.44,10.56,1.1,15.45-.16,8.35-2.68,8.82-4.25a2.83,2.83,0,0,1,.11-.31C391.75,303.56,388.42,296.26,385.74,290.27Z" style="fill:#263238;stroke:#263238;stroke-linecap:round;stroke-linejoin:round"></path><path d="M377,297.9s3.31-.63,4.1-3.47-4.73-26.32-7.41-30.73-4.1-5.51-6.3-1.1c0,0-.32,12.29.31,18C367.66,280.57,370.18,293.49,377,297.9Z" style="fill:#92E3A9;stroke:#263238;stroke-linecap:round;stroke-linejoin:round"></path><path d="M377.59,294.28a15.85,15.85,0,0,0-1.73-5.36c-1.42-2.52-5.05-7.57-7.41-11.66s-4.73-6.31-6.46-7.1-3.47-1.41-4.26-.94a1.77,1.77,0,0,0-.78,1.42,1.36,1.36,0,0,0-.63,1.26,5.25,5.25,0,0,0,.15,1.42s-.79,1.57.16,1.89l.63-.16-.31-.63a20.12,20.12,0,0,0,3.46,1.89,24.18,24.18,0,0,0,3.63.47S368.77,290,370.66,293s4.73,5.51,6.3,4.88S377.59,294.28,377.59,294.28Z" style="fill:#fff;stroke:#263238;stroke-linecap:round;stroke-linejoin:round"></path><path d="M329.36,283.54s.82,4.1,1.52,4.45a11.37,11.37,0,0,0,2.81.47l.12-.94a2.42,2.42,0,0,1-2.46-1.64C330.53,284,329.71,282.48,329.36,283.54Z" style="fill:#fff;stroke:#263238;stroke-linecap:round;stroke-linejoin:round"></path><path d="M331.7,284.24s.82,4.1,1.52,4.46a11.36,11.36,0,0,0,2.82.46l.12-.93a2.45,2.45,0,0,1-2.47-1.64C332.87,284.71,332.05,283.19,331.7,284.24Z" style="fill:#fff;stroke:#263238;stroke-linecap:round;stroke-linejoin:round"></path><path d="M333.93,285.18s.82,4.1,1.52,4.45a11,11,0,0,0,2.82.47l.11-.94a2.42,2.42,0,0,1-2.46-1.64C335.1,285.65,334.28,284.12,333.93,285.18Z" style="fill:#fff;stroke:#263238;stroke-linecap:round;stroke-linejoin:round"></path><path d="M342,289.63a3.27,3.27,0,0,0-3.87-.93,6.18,6.18,0,0,1-1.06-2.47c-.23-1.4-.93-.93-.93.47a15.32,15.32,0,0,0,1.4,4.34,7.94,7.94,0,0,0,4.22,0" style="fill:#fff;stroke:#263238;stroke-linecap:round;stroke-linejoin:round"></path><path d="M341.43,288.11l-.82-2.93s-2.34.58-3.16.23,3.16-2.58,3.16-2.58a1.4,1.4,0,0,1,1.52.94c.59,1.17,2,5.39,2,5.39" style="fill:#fff;stroke:#263238;stroke-linecap:round;stroke-linejoin:round"></path><path d="M369.1,395.45s-3.24,2.71-5.33,4.53-5.46,3.12-4.55,3.9,15.61.53,16.26.26.52-2.73.26-3.64-.84-3.9-.84-3.9Z" style="fill:#92E3A9;stroke:#263238;stroke-linecap:round;stroke-linejoin:round"></path><path d="M376,402.43a122.43,122.43,0,0,1-16,.16c-.75.52-1.16,1-.77,1.29.91.79,15.61.53,16.26.26C375.83,404,376,403.25,376,402.43Z" style="fill:#263238;stroke:#263238;stroke-linecap:round;stroke-linejoin:round"></path></g></svg>