<svg xmlns="http://www.w3.org/2000/svg" viewBox="0 0 750 500"><g id="freepik--background-simple--inject-70"><path d="M681.78,420.28c36.79-29.5,58-74.28,58.63-121.43.41-29.72-1.73-67.06-11.71-99-32.93-105.38-126-162.54-194-174.73s-138.16,10.16-191,45.71-47.74,29.46-138.15,16.26S41,112.48,16.57,183.6,66.34,295,74.47,332.25,68.38,435.53,209.59,451.79s183.87-63,254-40.64C520,429.14,604,482.64,681.78,420.28Z" style="fill:#92E3A9"></path><path d="M681.78,420.28c36.79-29.5,58-74.28,58.63-121.43.41-29.72-1.73-67.06-11.71-99-32.93-105.38-126-162.54-194-174.73s-138.16,10.16-191,45.71-47.74,29.46-138.15,16.26S41,112.48,16.57,183.6,66.34,295,74.47,332.25,68.38,435.53,209.59,451.79s183.87-63,254-40.64C520,429.14,604,482.64,681.78,420.28Z" style="fill:#fff;opacity:0.7000000000000001"></path></g><g id="freepik--Clouds--inject-70"><path d="M439.19,43.27s-21.55-33.22-38.61-31.42-16.16,14.36-22.45,24.24-16.16-4.49-26-.9-6.29,9.88-12.57,12.57-20.66-11.67-26-7.18-7.19,11.67-10.78,13.47-10.77-4.49-14.36,0l-3.59,4.49h176s2.69-9.88-4.49-14.37S447.27,45.07,439.19,43.27Z" style="fill:#fff;stroke:#858585;stroke-miterlimit:10"></path><path d="M729.33,67.59S718.59,51,710.09,51.93,702,59.09,698.91,64s-8-2.24-13-.45-3.13,4.92-6.26,6.26-10.29-5.81-13-3.58-3.58,5.82-5.37,6.71-5.36-2.23-7.15,0l-1.79,2.24h87.66s1.34-4.92-2.24-7.16S733.35,68.48,729.33,67.59Z" style="fill:#fff;stroke:#858585;stroke-miterlimit:10"></path><path d="M123.57,58.72s-10.73-16.55-19.23-15.65-8,7.15-11.18,12.07-8-2.23-13-.44S77.06,59.62,73.93,61s-10.29-5.82-13-3.58-3.58,5.81-5.37,6.71-5.37-2.24-7.16,0l-1.78,2.23h87.66s1.34-4.92-2.24-7.15S127.6,59.62,123.57,58.72Z" style="fill:#fff;stroke:#858585;stroke-miterlimit:10"></path></g><g id="freepik--City--inject-70"><line x1="723.92" y1="166.15" x2="739.32" y2="166.15" style="fill:none;stroke:#858585;stroke-miterlimit:10"></line><polyline points="681.21 265.63 681.21 273.51 704.85 273.51 704.85 166.15 717.09 166.15" style="fill:none;stroke:#858585;stroke-miterlimit:10"></polyline><line x1="681.21" y1="137.63" x2="681.21" y2="259.71" style="fill:none;stroke:#858585;stroke-miterlimit:10"></line><polyline points="235.02 191.84 235.02 267.18 296.09 267.18 296.09 154.33 330.56 154.33 330.56 193.73 349.28 193.73 349.28 117.89 387.69 117.89 387.69 137.59 407.39 137.59 407.39 99.17 681.21 99.17 681.21 130.79" style="fill:none;stroke:#858585;stroke-miterlimit:10"></polyline><line x1="235.02" y1="51.53" x2="235.02" y2="185.91" style="fill:none;stroke:#858585;stroke-miterlimit:10"></line><polyline points="118.8 118.04 118.8 214.31 162.13 214.31 162.13 29.24 235.02 29.24 235.02 45.15" style="fill:none;stroke:#858585;stroke-miterlimit:10"></polyline><polyline points="59.7 218.26 59.7 97.2 118.8 97.2 118.8 112.57" style="fill:none;stroke:#858585;stroke-miterlimit:10"></polyline><polyline points="15.37 317.84 59.7 317.84 59.7 224.63" style="fill:none;stroke:#858585;stroke-miterlimit:10"></polyline><line x1="168.04" y1="45" x2="196.61" y2="45" style="fill:none;stroke:#858585;stroke-miterlimit:10"></line><line x1="180.47" y1="60.76" x2="196.61" y2="60.76" style="fill:none;stroke:#858585;stroke-miterlimit:10"></line><line x1="168.04" y1="60.76" x2="175.46" y2="60.76" style="fill:none;stroke:#858585;stroke-miterlimit:10"></line><line x1="168.04" y1="76.52" x2="196.61" y2="76.52" style="fill:none;stroke:#858585;stroke-miterlimit:10"></line><line x1="168.04" y1="92.28" x2="196.61" y2="92.28" style="fill:none;stroke:#858585;stroke-miterlimit:10"></line><line x1="168.04" y1="108.04" x2="196.61" y2="108.04" style="fill:none;stroke:#858585;stroke-miterlimit:10"></line><line x1="168.04" y1="123.8" x2="196.61" y2="123.8" style="fill:none;stroke:#858585;stroke-miterlimit:10"></line><line x1="185.48" y1="139.56" x2="196.61" y2="139.56" style="fill:none;stroke:#858585;stroke-miterlimit:10"></line><line x1="168.04" y1="139.56" x2="179.56" y2="139.56" style="fill:none;stroke:#858585;stroke-miterlimit:10"></line><line x1="168.04" y1="155.32" x2="196.61" y2="155.32" style="fill:none;stroke:#858585;stroke-miterlimit:10"></line><line x1="168.04" y1="171.08" x2="196.61" y2="171.08" style="fill:none;stroke:#858585;stroke-miterlimit:10"></line><line x1="168.04" y1="186.84" x2="196.61" y2="186.84" style="fill:none;stroke:#858585;stroke-miterlimit:10"></line><line x1="204.49" y1="76.58" x2="204.49" y2="200.63" style="fill:none;stroke:#858585;stroke-miterlimit:10"></line><line x1="204.49" y1="35.15" x2="204.49" y2="71.12" style="fill:none;stroke:#858585;stroke-miterlimit:10"></line><rect x="66.59" y="108.04" width="8.86" height="8.86" style="fill:none;stroke:#858585;stroke-miterlimit:10"></rect><rect x="66.59" y="125.77" width="8.86" height="8.86" style="fill:none;stroke:#858585;stroke-miterlimit:10"></rect><rect x="66.59" y="143.5" width="8.86" height="8.86" style="fill:none;stroke:#858585;stroke-miterlimit:10"></rect><rect x="66.59" y="161.23" width="8.86" height="8.86" style="fill:none;stroke:#858585;stroke-miterlimit:10"></rect><rect x="66.59" y="178.96" width="8.86" height="8.86" style="fill:none;stroke:#858585;stroke-miterlimit:10"></rect><rect x="66.59" y="196.69" width="8.86" height="8.86" style="fill:none;stroke:#858585;stroke-miterlimit:10"></rect><rect x="66.59" y="214.42" width="8.86" height="8.86" style="fill:none;stroke:#858585;stroke-miterlimit:10"></rect><rect x="66.59" y="232.14" width="8.86" height="8.86" style="fill:none;stroke:#858585;stroke-miterlimit:10"></rect><rect x="84.32" y="108.04" width="8.86" height="8.86" style="fill:none;stroke:#858585;stroke-miterlimit:10"></rect><rect x="84.32" y="125.77" width="8.86" height="8.86" style="fill:none;stroke:#858585;stroke-miterlimit:10"></rect><rect x="84.32" y="143.5" width="8.86" height="8.86" style="fill:none;stroke:#858585;stroke-miterlimit:10"></rect><rect x="84.32" y="161.23" width="8.86" height="8.86" style="fill:none;stroke:#858585;stroke-miterlimit:10"></rect><rect x="84.32" y="178.96" width="8.86" height="8.86" style="fill:none;stroke:#858585;stroke-miterlimit:10"></rect><rect x="84.32" y="196.69" width="8.86" height="8.86" style="fill:none;stroke:#858585;stroke-miterlimit:10"></rect><rect x="84.32" y="214.42" width="8.86" height="8.86" style="fill:none;stroke:#858585;stroke-miterlimit:10"></rect><rect x="84.32" y="232.14" width="8.86" height="8.86" style="fill:none;stroke:#858585;stroke-miterlimit:10"></rect><rect x="215.32" y="39.09" width="8.86" height="8.86" style="fill:none;stroke:#858585;stroke-miterlimit:10"></rect><rect x="215.32" y="56.82" width="8.86" height="8.86" style="fill:none;stroke:#858585;stroke-miterlimit:10"></rect><rect x="215.32" y="74.55" width="8.86" height="8.86" style="fill:none;stroke:#858585;stroke-miterlimit:10"></rect><rect x="215.32" y="92.28" width="8.86" height="8.86" style="fill:none;stroke:#858585;stroke-miterlimit:10"></rect><rect x="215.32" y="110.01" width="8.86" height="8.86" style="fill:none;stroke:#858585;stroke-miterlimit:10"></rect><rect x="215.32" y="127.74" width="8.86" height="8.86" style="fill:none;stroke:#858585;stroke-miterlimit:10"></rect><rect x="215.32" y="145.47" width="8.86" height="8.86" style="fill:none;stroke:#858585;stroke-miterlimit:10"></rect><rect x="215.32" y="163.2" width="8.86" height="8.86" style="fill:none;stroke:#858585;stroke-miterlimit:10"></rect><rect x="215.32" y="182.4" width="8.86" height="8.86" style="fill:none;stroke:#858585;stroke-miterlimit:10"></rect><rect x="215.32" y="200.13" width="8.86" height="8.86" style="fill:none;stroke:#858585;stroke-miterlimit:10"></rect><rect x="215.32" y="217.86" width="8.86" height="8.86" style="fill:none;stroke:#858585;stroke-miterlimit:10"></rect><rect x="215.32" y="235.59" width="8.86" height="8.86" style="fill:none;stroke:#858585;stroke-miterlimit:10"></rect><rect x="215.32" y="253.32" width="8.86" height="8.86" style="fill:none;stroke:#858585;stroke-miterlimit:10"></rect><rect x="215.32" y="271.05" width="8.86" height="8.86" style="fill:none;stroke:#858585;stroke-miterlimit:10"></rect><rect x="215.32" y="288.78" width="8.86" height="8.86" style="fill:none;stroke:#858585;stroke-miterlimit:10"></rect><rect x="215.32" y="306.51" width="8.86" height="8.86" style="fill:none;stroke:#858585;stroke-miterlimit:10"></rect><rect x="102.05" y="108.04" width="8.86" height="8.86" style="fill:none;stroke:#858585;stroke-miterlimit:10"></rect><rect x="102.05" y="125.77" width="8.86" height="8.86" style="fill:none;stroke:#858585;stroke-miterlimit:10"></rect><rect x="102.05" y="143.5" width="8.86" height="8.86" style="fill:none;stroke:#858585;stroke-miterlimit:10"></rect><rect x="102.05" y="161.23" width="8.86" height="8.86" style="fill:none;stroke:#858585;stroke-miterlimit:10"></rect><rect x="102.05" y="178.96" width="8.86" height="8.86" style="fill:none;stroke:#858585;stroke-miterlimit:10"></rect><rect x="102.05" y="196.69" width="8.86" height="8.86" style="fill:none;stroke:#858585;stroke-miterlimit:10"></rect><rect x="102.05" y="214.42" width="8.86" height="8.86" style="fill:none;stroke:#858585;stroke-miterlimit:10"></rect><rect x="102.05" y="232.14" width="8.86" height="8.86" style="fill:none;stroke:#858585;stroke-miterlimit:10"></rect><rect x="714.7" y="176.99" width="8.86" height="8.86" style="fill:none;stroke:#858585;stroke-miterlimit:10"></rect><rect x="714.7" y="194.72" width="8.86" height="8.86" style="fill:none;stroke:#858585;stroke-miterlimit:10"></rect><rect x="714.7" y="212.45" width="8.86" height="8.86" style="fill:none;stroke:#858585;stroke-miterlimit:10"></rect><rect x="714.7" y="230.17" width="8.86" height="8.86" style="fill:none;stroke:#858585;stroke-miterlimit:10"></rect><rect x="714.7" y="247.9" width="8.86" height="8.86" style="fill:none;stroke:#858585;stroke-miterlimit:10"></rect><rect x="714.7" y="265.63" width="8.86" height="8.86" style="fill:none;stroke:#858585;stroke-miterlimit:10"></rect><rect x="714.7" y="283.36" width="8.86" height="8.86" style="fill:none;stroke:#858585;stroke-miterlimit:10"></rect><rect x="714.7" y="301.09" width="8.86" height="8.86" style="fill:none;stroke:#858585;stroke-miterlimit:10"></rect><rect x="662" y="112.47" width="8.86" height="8.86" style="fill:none;stroke:#858585;stroke-miterlimit:10"></rect><rect x="662" y="130.2" width="8.86" height="8.86" style="fill:none;stroke:#858585;stroke-miterlimit:10"></rect><rect x="662" y="147.93" width="8.86" height="8.86" style="fill:none;stroke:#858585;stroke-miterlimit:10"></rect><rect x="662" y="165.66" width="8.86" height="8.86" style="fill:none;stroke:#858585;stroke-miterlimit:10"></rect><rect x="662" y="183.39" width="8.86" height="8.86" style="fill:none;stroke:#858585;stroke-miterlimit:10"></rect><rect x="662" y="201.12" width="8.86" height="8.86" style="fill:none;stroke:#858585;stroke-miterlimit:10"></rect><rect x="662" y="218.85" width="8.86" height="8.86" style="fill:none;stroke:#858585;stroke-miterlimit:10"></rect><rect x="662" y="236.58" width="8.86" height="8.86" style="fill:none;stroke:#858585;stroke-miterlimit:10"></rect></g><g id="freepik--Buidings--inject-70"><rect x="276.55" y="98.7" width="189.95" height="25.61" style="fill:#a1a1a1;stroke:#858585;stroke-miterlimit:10"></rect><rect x="364.17" y="98.7" width="102.32" height="25.61" style="fill:#c9c9c9;stroke:#858585;stroke-miterlimit:10"></rect><rect x="350.14" y="98.6" width="14.04" height="25.73" style="fill:#dedede;stroke:#858585;stroke-miterlimit:10"></rect><rect x="364.12" y="98.6" width="14.04" height="25.73" style="fill:#fff;stroke:#858585;stroke-miterlimit:10"></rect><rect x="276.55" y="98.6" width="14.04" height="25.73" style="fill:#dedede;stroke:#858585;stroke-miterlimit:10"></rect><rect x="452.46" y="98.6" width="14.04" height="25.73" style="fill:#fff;stroke:#858585;stroke-miterlimit:10"></rect><rect x="272.41" y="81.45" width="92.54" height="22.61" style="fill:#dedede;stroke:#858585;stroke-miterlimit:10"></rect><rect x="364.17" y="81.45" width="106.83" height="22.61" style="fill:#fff;stroke:#858585;stroke-miterlimit:10"></rect><rect x="276.55" y="143.89" width="189.95" height="25.61" style="fill:#a1a1a1;stroke:#858585;stroke-miterlimit:10"></rect><rect x="364.17" y="143.89" width="102.32" height="25.61" style="fill:#c9c9c9;stroke:#858585;stroke-miterlimit:10"></rect><rect x="276.55" y="189.08" width="189.95" height="25.61" style="fill:#a1a1a1;stroke:#858585;stroke-miterlimit:10"></rect><rect x="364.17" y="189.08" width="102.32" height="25.61" style="fill:#c9c9c9;stroke:#858585;stroke-miterlimit:10"></rect><rect x="276.55" y="229.4" width="189.95" height="25.61" style="fill:#a1a1a1;stroke:#858585;stroke-miterlimit:10"></rect><rect x="364.17" y="229.4" width="102.32" height="25.61" style="fill:#c9c9c9;stroke:#858585;stroke-miterlimit:10"></rect><rect x="276.55" y="269.72" width="189.95" height="25.61" style="fill:#a1a1a1;stroke:#858585;stroke-miterlimit:10"></rect><rect x="364.17" y="269.72" width="102.32" height="25.61" style="fill:#c9c9c9;stroke:#858585;stroke-miterlimit:10"></rect><rect x="276.55" y="315.6" width="189.95" height="25.61" style="fill:#a1a1a1;stroke:#858585;stroke-miterlimit:10"></rect><rect x="364.17" y="315.6" width="102.32" height="25.61" style="fill:#c9c9c9;stroke:#858585;stroke-miterlimit:10"></rect><rect x="276.55" y="357.31" width="189.95" height="25.61" style="fill:#a1a1a1;stroke:#858585;stroke-miterlimit:10"></rect><rect x="364.17" y="357.31" width="102.32" height="25.61" style="fill:#c9c9c9;stroke:#858585;stroke-miterlimit:10"></rect><rect x="350.14" y="141.34" width="14.04" height="25.73" style="fill:#dedede;stroke:#858585;stroke-miterlimit:10"></rect><rect x="364.12" y="141.34" width="14.04" height="25.73" style="fill:#fff;stroke:#858585;stroke-miterlimit:10"></rect><rect x="276.55" y="141.34" width="14.04" height="25.73" style="fill:#dedede;stroke:#858585;stroke-miterlimit:10"></rect><rect x="452.46" y="141.34" width="14.04" height="25.73" style="fill:#fff;stroke:#858585;stroke-miterlimit:10"></rect><rect x="272.41" y="124.18" width="92.54" height="22.61" style="fill:#dedede;stroke:#858585;stroke-miterlimit:10"></rect><rect x="364.17" y="124.18" width="106.83" height="22.61" style="fill:#fff;stroke:#858585;stroke-miterlimit:10"></rect><rect x="350.14" y="184.08" width="14.04" height="25.73" style="fill:#dedede;stroke:#858585;stroke-miterlimit:10"></rect><rect x="364.12" y="184.08" width="14.04" height="25.73" style="fill:#fff;stroke:#858585;stroke-miterlimit:10"></rect><rect x="276.55" y="184.08" width="14.04" height="25.73" style="fill:#dedede;stroke:#858585;stroke-miterlimit:10"></rect><rect x="452.46" y="184.08" width="14.04" height="25.73" style="fill:#fff;stroke:#858585;stroke-miterlimit:10"></rect><rect x="272.41" y="166.92" width="92.54" height="22.61" style="fill:#dedede;stroke:#858585;stroke-miterlimit:10"></rect><rect x="364.17" y="166.92" width="106.83" height="22.61" style="fill:#fff;stroke:#858585;stroke-miterlimit:10"></rect><rect x="350.14" y="226.81" width="14.04" height="25.73" style="fill:#dedede;stroke:#858585;stroke-miterlimit:10"></rect><rect x="364.12" y="226.81" width="14.04" height="25.73" style="fill:#fff;stroke:#858585;stroke-miterlimit:10"></rect><rect x="276.55" y="226.81" width="14.04" height="25.73" style="fill:#dedede;stroke:#858585;stroke-miterlimit:10"></rect><rect x="452.46" y="226.81" width="14.04" height="25.73" style="fill:#fff;stroke:#858585;stroke-miterlimit:10"></rect><rect x="272.41" y="209.66" width="92.54" height="22.61" style="fill:#dedede;stroke:#858585;stroke-miterlimit:10"></rect><rect x="364.17" y="209.66" width="106.83" height="22.61" style="fill:#fff;stroke:#858585;stroke-miterlimit:10"></rect><rect x="350.14" y="269.55" width="14.04" height="25.73" style="fill:#dedede;stroke:#858585;stroke-miterlimit:10"></rect><rect x="364.12" y="269.55" width="14.04" height="25.73" style="fill:#fff;stroke:#858585;stroke-miterlimit:10"></rect><rect x="276.55" y="269.55" width="14.04" height="25.73" style="fill:#dedede;stroke:#858585;stroke-miterlimit:10"></rect><rect x="452.46" y="269.55" width="14.04" height="25.73" style="fill:#fff;stroke:#858585;stroke-miterlimit:10"></rect><rect x="272.41" y="252.4" width="92.54" height="22.61" style="fill:#dedede;stroke:#858585;stroke-miterlimit:10"></rect><rect x="364.17" y="252.4" width="106.83" height="22.61" style="fill:#fff;stroke:#858585;stroke-miterlimit:10"></rect><rect x="350.14" y="312.29" width="14.04" height="25.73" style="fill:#dedede;stroke:#858585;stroke-miterlimit:10"></rect><rect x="364.12" y="312.29" width="14.04" height="25.73" style="fill:#fff;stroke:#858585;stroke-miterlimit:10"></rect><rect x="276.55" y="312.29" width="14.04" height="25.73" style="fill:#dedede;stroke:#858585;stroke-miterlimit:10"></rect><rect x="452.46" y="312.29" width="14.04" height="25.73" style="fill:#fff;stroke:#858585;stroke-miterlimit:10"></rect><rect x="272.41" y="295.14" width="92.54" height="22.61" style="fill:#dedede;stroke:#858585;stroke-miterlimit:10"></rect><rect x="364.17" y="295.14" width="106.83" height="22.61" style="fill:#fff;stroke:#858585;stroke-miterlimit:10"></rect><rect x="350.14" y="355.03" width="14.04" height="25.73" style="fill:#dedede;stroke:#858585;stroke-miterlimit:10"></rect><rect x="364.12" y="355.03" width="14.04" height="25.73" style="fill:#fff;stroke:#858585;stroke-miterlimit:10"></rect><rect x="276.55" y="355.03" width="14.04" height="25.73" style="fill:#dedede;stroke:#858585;stroke-miterlimit:10"></rect><rect x="452.46" y="355.03" width="14.04" height="25.73" style="fill:#fff;stroke:#858585;stroke-miterlimit:10"></rect><rect x="272.41" y="337.87" width="92.54" height="22.61" style="fill:#dedede;stroke:#858585;stroke-miterlimit:10"></rect><rect x="364.17" y="337.87" width="106.83" height="22.61" style="fill:#fff;stroke:#858585;stroke-miterlimit:10"></rect><rect x="276.55" y="397.87" width="189.95" height="25.61" style="fill:#c9c9c9;stroke:#858585;stroke-miterlimit:10"></rect><rect x="276.55" y="397.87" width="87.63" height="25.61" style="fill:#a1a1a1;stroke:#858585;stroke-miterlimit:10"></rect><rect x="350.14" y="397.77" width="14.04" height="25.73" style="fill:#dedede;stroke:#858585;stroke-miterlimit:10"></rect><rect x="364.12" y="397.77" width="14.04" height="25.73" style="fill:#fff;stroke:#858585;stroke-miterlimit:10"></rect><rect x="276.55" y="397.77" width="14.04" height="25.73" style="fill:#dedede;stroke:#858585;stroke-miterlimit:10"></rect><rect x="452.46" y="397.77" width="14.04" height="25.73" style="fill:#fff;stroke:#858585;stroke-miterlimit:10"></rect><rect x="272.41" y="380.61" width="92.54" height="22.61" style="fill:#dedede;stroke:#858585;stroke-miterlimit:10"></rect><rect x="364.17" y="380.61" width="106.83" height="22.61" style="fill:#fff;stroke:#858585;stroke-miterlimit:10"></rect><rect x="276.55" y="440.94" width="189.95" height="25.61" style="fill:#c9c9c9;stroke:#858585;stroke-miterlimit:10"></rect><rect x="276.55" y="440.94" width="87.63" height="25.61" style="fill:#a1a1a1;stroke:#858585;stroke-miterlimit:10"></rect><rect x="350.14" y="440.83" width="14.04" height="25.73" style="fill:#dedede;stroke:#858585;stroke-miterlimit:10"></rect><rect x="364.12" y="440.83" width="14.04" height="25.73" style="fill:#fff;stroke:#858585;stroke-miterlimit:10"></rect><rect x="276.55" y="440.83" width="14.04" height="25.73" style="fill:#dedede;stroke:#858585;stroke-miterlimit:10"></rect><rect x="452.46" y="440.83" width="14.04" height="25.73" style="fill:#fff;stroke:#858585;stroke-miterlimit:10"></rect><rect x="272.41" y="423.68" width="92.54" height="22.61" style="fill:#dedede;stroke:#858585;stroke-miterlimit:10"></rect><rect x="364.17" y="423.68" width="106.83" height="22.61" style="fill:#fff;stroke:#858585;stroke-miterlimit:10"></rect><rect x="429.7" y="36.48" width="222.08" height="29.94" style="fill:#a1a1a1;stroke:#858585;stroke-miterlimit:10"></rect><rect x="532.15" y="36.48" width="119.63" height="29.94" style="fill:#c9c9c9;stroke:#858585;stroke-miterlimit:10"></rect><rect x="515.74" y="36.36" width="16.41" height="30.08" style="fill:#dedede;stroke:#858585;stroke-miterlimit:10"></rect><rect x="532.08" y="36.36" width="16.41" height="30.08" style="fill:#fff;stroke:#858585;stroke-miterlimit:10"></rect><rect x="429.7" y="36.36" width="16.41" height="30.08" style="fill:#dedede;stroke:#858585;stroke-miterlimit:10"></rect><rect x="635.37" y="36.36" width="16.41" height="30.08" style="fill:#fff;stroke:#858585;stroke-miterlimit:10"></rect><rect x="424.87" y="16.3" width="108.2" height="26.44" style="fill:#dedede;stroke:#858585;stroke-miterlimit:10"></rect><rect x="532.15" y="16.3" width="124.9" height="26.44" style="fill:#fff;stroke:#858585;stroke-miterlimit:10"></rect><rect x="429.7" y="89.31" width="222.08" height="29.94" style="fill:#a1a1a1;stroke:#858585;stroke-miterlimit:10"></rect><rect x="532.15" y="89.31" width="119.63" height="29.94" style="fill:#c9c9c9;stroke:#858585;stroke-miterlimit:10"></rect><rect x="429.7" y="142.14" width="222.08" height="29.94" style="fill:#a1a1a1;stroke:#858585;stroke-miterlimit:10"></rect><rect x="532.15" y="142.14" width="119.63" height="29.94" style="fill:#c9c9c9;stroke:#858585;stroke-miterlimit:10"></rect><rect x="429.7" y="189.28" width="222.08" height="29.94" style="fill:#a1a1a1;stroke:#858585;stroke-miterlimit:10"></rect><rect x="532.15" y="189.28" width="119.63" height="29.94" style="fill:#c9c9c9;stroke:#858585;stroke-miterlimit:10"></rect><rect x="429.7" y="236.42" width="222.08" height="29.94" style="fill:#a1a1a1;stroke:#858585;stroke-miterlimit:10"></rect><rect x="532.15" y="236.42" width="119.63" height="29.94" style="fill:#c9c9c9;stroke:#858585;stroke-miterlimit:10"></rect><rect x="429.7" y="290.07" width="222.08" height="29.94" style="fill:#a1a1a1;stroke:#858585;stroke-miterlimit:10"></rect><rect x="532.15" y="290.07" width="119.63" height="29.94" style="fill:#c9c9c9;stroke:#858585;stroke-miterlimit:10"></rect><rect x="429.7" y="338.83" width="222.08" height="29.94" style="fill:#a1a1a1;stroke:#858585;stroke-miterlimit:10"></rect><rect x="532.15" y="338.83" width="119.63" height="29.94" style="fill:#c9c9c9;stroke:#858585;stroke-miterlimit:10"></rect><rect x="515.74" y="86.33" width="16.41" height="30.08" style="fill:#dedede;stroke:#858585;stroke-miterlimit:10"></rect><rect x="532.08" y="86.33" width="16.41" height="30.08" style="fill:#fff;stroke:#858585;stroke-miterlimit:10"></rect><rect x="429.7" y="86.33" width="16.41" height="30.08" style="fill:#dedede;stroke:#858585;stroke-miterlimit:10"></rect><rect x="635.37" y="86.33" width="16.41" height="30.08" style="fill:#fff;stroke:#858585;stroke-miterlimit:10"></rect><rect x="424.87" y="66.27" width="108.2" height="26.44" style="fill:#dedede;stroke:#858585;stroke-miterlimit:10"></rect><rect x="532.15" y="66.27" width="124.9" height="26.44" style="fill:#fff;stroke:#858585;stroke-miterlimit:10"></rect><rect x="515.74" y="136.29" width="16.41" height="30.08" style="fill:#dedede;stroke:#858585;stroke-miterlimit:10"></rect><rect x="532.08" y="136.29" width="16.41" height="30.08" style="fill:#fff;stroke:#858585;stroke-miterlimit:10"></rect><rect x="429.7" y="136.29" width="16.41" height="30.08" style="fill:#dedede;stroke:#858585;stroke-miterlimit:10"></rect><rect x="635.37" y="136.29" width="16.41" height="30.08" style="fill:#fff;stroke:#858585;stroke-miterlimit:10"></rect><rect x="424.87" y="116.24" width="108.2" height="26.44" style="fill:#dedede;stroke:#858585;stroke-miterlimit:10"></rect><rect x="532.15" y="116.24" width="124.9" height="26.44" style="fill:#fff;stroke:#858585;stroke-miterlimit:10"></rect><rect x="515.74" y="186.26" width="16.41" height="30.08" style="fill:#dedede;stroke:#858585;stroke-miterlimit:10"></rect><rect x="532.08" y="186.26" width="16.41" height="30.08" style="fill:#fff;stroke:#858585;stroke-miterlimit:10"></rect><rect x="429.7" y="186.26" width="16.41" height="30.08" style="fill:#dedede;stroke:#858585;stroke-miterlimit:10"></rect><rect x="635.37" y="186.26" width="16.41" height="30.08" style="fill:#fff;stroke:#858585;stroke-miterlimit:10"></rect><rect x="424.87" y="166.2" width="108.2" height="26.44" style="fill:#dedede;stroke:#858585;stroke-miterlimit:10"></rect><rect x="532.15" y="166.2" width="124.9" height="26.44" style="fill:#fff;stroke:#858585;stroke-miterlimit:10"></rect><rect x="515.74" y="236.23" width="16.41" height="30.08" style="fill:#dedede;stroke:#858585;stroke-miterlimit:10"></rect><rect x="532.08" y="236.23" width="16.41" height="30.08" style="fill:#fff;stroke:#858585;stroke-miterlimit:10"></rect><rect x="429.7" y="236.23" width="16.41" height="30.08" style="fill:#dedede;stroke:#858585;stroke-miterlimit:10"></rect><rect x="635.37" y="236.23" width="16.41" height="30.08" style="fill:#fff;stroke:#858585;stroke-miterlimit:10"></rect><rect x="424.87" y="216.17" width="108.2" height="26.44" style="fill:#dedede;stroke:#858585;stroke-miterlimit:10"></rect><rect x="532.15" y="216.17" width="124.9" height="26.44" style="fill:#fff;stroke:#858585;stroke-miterlimit:10"></rect><rect x="515.74" y="286.19" width="16.41" height="30.08" style="fill:#dedede;stroke:#858585;stroke-miterlimit:10"></rect><rect x="532.08" y="286.19" width="16.41" height="30.08" style="fill:#fff;stroke:#858585;stroke-miterlimit:10"></rect><rect x="429.7" y="286.19" width="16.41" height="30.08" style="fill:#dedede;stroke:#858585;stroke-miterlimit:10"></rect><rect x="635.37" y="286.19" width="16.41" height="30.08" style="fill:#fff;stroke:#858585;stroke-miterlimit:10"></rect><rect x="424.87" y="266.14" width="108.2" height="26.44" style="fill:#dedede;stroke:#858585;stroke-miterlimit:10"></rect><rect x="532.15" y="266.14" width="124.9" height="26.44" style="fill:#fff;stroke:#858585;stroke-miterlimit:10"></rect><rect x="515.74" y="336.16" width="16.41" height="30.08" style="fill:#dedede;stroke:#858585;stroke-miterlimit:10"></rect><rect x="532.08" y="336.16" width="16.41" height="30.08" style="fill:#fff;stroke:#858585;stroke-miterlimit:10"></rect><rect x="429.7" y="336.16" width="16.41" height="30.08" style="fill:#dedede;stroke:#858585;stroke-miterlimit:10"></rect><rect x="635.37" y="336.16" width="16.41" height="30.08" style="fill:#fff;stroke:#858585;stroke-miterlimit:10"></rect><rect x="424.87" y="316.11" width="108.2" height="26.44" style="fill:#dedede;stroke:#858585;stroke-miterlimit:10"></rect><rect x="532.15" y="316.11" width="124.9" height="26.44" style="fill:#fff;stroke:#858585;stroke-miterlimit:10"></rect><rect x="429.7" y="386.25" width="222.08" height="29.94" style="fill:#c9c9c9;stroke:#858585;stroke-miterlimit:10"></rect><rect x="429.7" y="386.25" width="102.45" height="29.94" style="fill:#a1a1a1;stroke:#858585;stroke-miterlimit:10"></rect><rect x="515.74" y="386.13" width="16.41" height="30.08" style="fill:#dedede;stroke:#858585;stroke-miterlimit:10"></rect><rect x="532.08" y="386.13" width="16.41" height="30.08" style="fill:#fff;stroke:#858585;stroke-miterlimit:10"></rect><rect x="429.7" y="386.13" width="16.41" height="30.08" style="fill:#dedede;stroke:#858585;stroke-miterlimit:10"></rect><rect x="635.37" y="386.13" width="16.41" height="30.08" style="fill:#fff;stroke:#858585;stroke-miterlimit:10"></rect><rect x="424.87" y="366.07" width="108.2" height="26.44" style="fill:#dedede;stroke:#858585;stroke-miterlimit:10"></rect><rect x="532.15" y="366.07" width="124.9" height="26.44" style="fill:#fff;stroke:#858585;stroke-miterlimit:10"></rect><rect x="429.7" y="436.6" width="222.08" height="29.94" style="fill:#c9c9c9;stroke:#858585;stroke-miterlimit:10"></rect><rect x="429.7" y="436.6" width="102.45" height="29.94" style="fill:#a1a1a1;stroke:#858585;stroke-miterlimit:10"></rect><rect x="515.74" y="436.48" width="16.41" height="30.08" style="fill:#dedede;stroke:#858585;stroke-miterlimit:10"></rect><rect x="532.08" y="436.48" width="16.41" height="30.08" style="fill:#fff;stroke:#858585;stroke-miterlimit:10"></rect><rect x="429.7" y="436.48" width="16.41" height="30.08" style="fill:#dedede;stroke:#858585;stroke-miterlimit:10"></rect><rect x="635.37" y="436.48" width="16.41" height="30.08" style="fill:#fff;stroke:#858585;stroke-miterlimit:10"></rect><rect x="424.87" y="416.43" width="108.2" height="26.44" style="fill:#dedede;stroke:#858585;stroke-miterlimit:10"></rect><rect x="532.15" y="416.43" width="124.9" height="26.44" style="fill:#fff;stroke:#858585;stroke-miterlimit:10"></rect></g><g id="freepik--Trees--inject-70"><path d="M156,310c13.69,69.41-29.32,40.5-65.48,40.5S8.53,374,25,310c9.43-36.59,29.31-59.47,65.48-59.47S150.22,280.71,156,310Z" style="fill:#92E3A9"></path><path d="M156,310c13.69,69.41-29.32,40.5-65.48,40.5S8.53,374,25,310c9.43-36.59,29.31-59.47,65.48-59.47S150.22,280.71,156,310Z" style="fill:#fff;opacity:0.58"></path><polygon points="73.02 337.85 87.91 349.22 86.39 466.2 95.39 466.2 93.66 330.58 114.96 307.15 93.4 325.57 92.62 290.68 90.27 314.6 84.72 310.57 72.63 293.43 80.4 309.01 55.38 298.92 80.88 313.33 89.27 319.14 88.31 344.52 73.02 337.85" style="fill:#a1a1a1"></polygon><path d="M79.83,276.75a13.32,13.32,0,0,0,1,8.18,25.18,25.18,0,0,0,4.75,6.17S87.61,284.05,79.83,276.75Z" style="fill:#fff"></path><path d="M42.34,316.25a13.32,13.32,0,0,0,7.66,3,25.47,25.47,0,0,0,7.71-1.17S52.49,313,42.34,316.25Z" style="fill:#fff"></path><path d="M37.08,334.78a13.36,13.36,0,0,0,8.23.63,25.22,25.22,0,0,0,7-3.41S45.8,328.63,37.08,334.78Z" style="fill:#fff"></path><path d="M62.08,336.71a13.33,13.33,0,0,0,7.74-2.85,25.33,25.33,0,0,0,5-6S67.45,327.49,62.08,336.71Z" style="fill:#fff"></path><path d="M51.54,281.37A13.29,13.29,0,0,0,56,288.32a25.49,25.49,0,0,0,6.94,3.56S61.69,284.64,51.54,281.37Z" style="fill:#fff"></path><path d="M126.12,278.07a13.31,13.31,0,0,0-7.31,3.81,25.42,25.42,0,0,0-4.15,6.59S122,287.9,126.12,278.07Z" style="fill:#fff"></path><path d="M141.82,301.61a13.36,13.36,0,0,0-8.18,1.05,25.46,25.46,0,0,0-6.17,4.75S134.53,309.4,141.82,301.61Z" style="fill:#fff"></path><path d="M140.29,328.35a13.33,13.33,0,0,0-7.43-3.58,25.39,25.39,0,0,0-7.77.62S129.93,330.9,140.29,328.35Z" style="fill:#fff"></path><path d="M122.77,342.7a13.4,13.4,0,0,0-5.67-6,25.46,25.46,0,0,0-7.48-2.18S112.18,341.39,122.77,342.7Z" style="fill:#fff"></path><path d="M113.55,299.31a13.36,13.36,0,0,0-7.32,3.81,25.75,25.75,0,0,0-4.15,6.59S109.4,309.14,113.55,299.31Z" style="fill:#fff"></path><path d="M39.33,293.41a13.29,13.29,0,0,0,5.89,5.77,25.32,25.32,0,0,0,7.56,1.9S50,294.31,39.33,293.41Z" style="fill:#fff"></path><path d="M103.92,271.77a13.35,13.35,0,0,0-4.59,6.85,25.3,25.3,0,0,0-.48,7.77S105,282.38,103.92,271.77Z" style="fill:#fff"></path><path d="M90.09,258.82A13.37,13.37,0,0,0,89,267a25.36,25.36,0,0,0,3,7.19S95.74,267.87,90.09,258.82Z" style="fill:#fff"></path><path d="M60.15,263.17A13.37,13.37,0,0,0,62.89,271a25.58,25.58,0,0,0,6,5S69.3,268.66,60.15,263.17Z" style="fill:#fff"></path><path d="M739,337.19c11.31,57.32-24.21,33.45-54.07,33.45s-67.71,19.44-54.07-33.45C638.68,307,655.1,288.08,685,288.08S734.27,313,739,337.19Z" style="fill:#92E3A9"></path><path d="M739,337.19c11.31,57.32-24.21,33.45-54.07,33.45s-67.71,19.44-54.07-33.45C638.68,307,655.1,288.08,685,288.08S734.27,313,739,337.19Z" style="fill:#fff;opacity:0.58"></path><polygon points="670.51 360.21 682.81 369.6 681.55 466.2 688.98 466.2 687.55 354.2 705.15 334.86 687.34 350.07 686.7 321.26 684.75 341 680.17 337.69 670.19 323.52 676.61 336.4 655.94 328.06 677 339.96 683.93 344.76 683.13 365.71 670.51 360.21" style="fill:#a1a1a1"></polygon><path d="M676.13,309.75a11,11,0,0,0,.86,6.76,21.13,21.13,0,0,0,3.93,5.1S682.56,315.78,676.13,309.75Z" style="fill:#fff"></path><path d="M645.17,342.37a11.05,11.05,0,0,0,6.34,2.51,21,21,0,0,0,6.36-1S653.56,339.65,645.17,342.37Z" style="fill:#fff"></path><path d="M640.84,357.68a11.06,11.06,0,0,0,6.79.52,21.09,21.09,0,0,0,5.78-2.82S648,352.59,640.84,357.68Z" style="fill:#fff"></path><path d="M661.48,359.27a11,11,0,0,0,6.39-2.35,20.78,20.78,0,0,0,4.09-5S665.91,351.65,661.48,359.27Z" style="fill:#fff"></path><path d="M652.77,313.57a11,11,0,0,0,3.67,5.74,20.9,20.9,0,0,0,5.72,2.93S661.16,316.27,652.77,313.57Z" style="fill:#fff"></path><path d="M714.37,310.84a11,11,0,0,0-6,3.15,20.85,20.85,0,0,0-3.42,5.44S710.94,319,714.37,310.84Z" style="fill:#fff"></path><path d="M727.33,330.28a11.06,11.06,0,0,0-6.76.87,21.06,21.06,0,0,0-5.09,3.92S721.31,336.72,727.33,330.28Z" style="fill:#fff"></path><path d="M726.06,352.36a11,11,0,0,0-6.14-3,21.19,21.19,0,0,0-6.41.52S717.5,354.47,726.06,352.36Z" style="fill:#fff"></path><path d="M711.59,364.21a11,11,0,0,0-4.67-4.95,20.86,20.86,0,0,0-6.18-1.8S702.85,363.13,711.59,364.21Z" style="fill:#fff"></path><path d="M704,328.38a11,11,0,0,0-6,3.15,21.05,21.05,0,0,0-3.43,5.44S700.55,336.5,704,328.38Z" style="fill:#fff"></path><path d="M642.69,323.51a11,11,0,0,0,4.86,4.77,21.08,21.08,0,0,0,6.24,1.56S651.47,324.25,642.69,323.51Z" style="fill:#fff"></path><path d="M696,305.64a11,11,0,0,0-3.79,5.65,21,21,0,0,0-.4,6.43S696.92,314.4,696,305.64Z" style="fill:#fff"></path><path d="M684.61,295a11,11,0,0,0-.91,6.75,20.93,20.93,0,0,0,2.49,5.93S689.27,302.42,684.61,295Z" style="fill:#fff"></path><path d="M659.88,298.54a11,11,0,0,0,2.27,6.42,21,21,0,0,0,4.91,4.16S667.44,303.07,659.88,298.54Z" style="fill:#fff"></path><path d="M250.49,276c16.67,84.51-35.7,49.31-79.73,49.31S70.93,354,91,276c11.49-44.55,35.7-72.41,79.73-72.41S243.46,240.35,250.49,276Z" style="fill:#92E3A9"></path><path d="M250.49,276c16.67,84.51-35.7,49.31-79.73,49.31S70.93,354,91,276c11.49-44.55,35.7-72.41,79.73-72.41S243.46,240.35,250.49,276Z" style="fill:#fff;opacity:0.30000000000000004"></path><polygon points="149.45 309.93 167.59 323.77 165.73 466.2 176.69 466.2 174.59 301.07 200.52 272.54 174.27 294.97 173.32 252.5 170.45 281.61 163.7 276.71 148.98 255.84 158.44 274.81 127.97 262.52 159.03 280.06 169.25 287.15 168.07 318.04 149.45 309.93" style="fill:#a1a1a1"></polygon><path d="M157.74,235.53s-1.17,5.44,1.27,10A30.8,30.8,0,0,0,164.8,253S167.22,244.41,157.74,235.53Z" style="fill:#fff"></path><path d="M112.1,283.62s4.2,3.66,9.33,3.71a31.14,31.14,0,0,0,9.38-1.43S124.46,279.62,112.1,283.62Z" style="fill:#fff"></path><path d="M105.7,306.19s5.1,2.25,10,.77a31.36,31.36,0,0,0,8.53-4.15S116.32,298.7,105.7,306.19Z" style="fill:#fff"></path><path d="M136.14,308.54s5.57-.08,9.43-3.47a31.05,31.05,0,0,0,6-7.32S142.68,297.31,136.14,308.54Z" style="fill:#fff"></path><path d="M123.3,241.16s1.26,5.42,5.4,8.46a31.1,31.1,0,0,0,8.44,4.33S135.67,245.14,123.3,241.16Z" style="fill:#fff"></path><path d="M214.12,237.14s-5.52.78-8.91,4.63a31.1,31.1,0,0,0-5.05,8S209.06,249.1,214.12,237.14Z" style="fill:#fff"></path><path d="M233.23,265.8s-5.45-1.17-10,1.27a31.08,31.08,0,0,0-7.52,5.79S224.35,275.28,233.23,265.8Z" style="fill:#fff"></path><path d="M231.36,298.36s-3.93-4-9.05-4.37a30.9,30.9,0,0,0-9.45.76S218.74,301.47,231.36,298.36Z" style="fill:#fff"></path><path d="M210,315.83s-2.26-5.1-6.9-7.3a31.12,31.12,0,0,0-9.11-2.67S197.13,314.24,210,315.83Z" style="fill:#fff"></path><path d="M198.8,263s-5.51.78-8.9,4.63a30.94,30.94,0,0,0-5.06,8S193.75,275,198.8,263Z" style="fill:#fff"></path><path d="M108.43,255.81s2.46,5,7.18,7a30.93,30.93,0,0,0,9.2,2.31S121.38,256.91,108.43,255.81Z" style="fill:#fff"></path><path d="M187.08,229.46s-4.46,3.33-5.59,8.34a30.87,30.87,0,0,0-.58,9.47S188.39,242.39,187.08,229.46Z" style="fill:#fff"></path><path d="M170.24,213.7s-2.53,5-1.33,10a31,31,0,0,0,3.66,8.76S177.12,224.72,170.24,213.7Z" style="fill:#fff"></path><path d="M133.78,219s0,5.57,3.35,9.47a31,31,0,0,0,7.24,6.13S144.93,225.68,133.78,219Z" style="fill:#fff"></path></g><g id="freepik--Floor--inject-70"><line x1="14.54" y1="466.57" x2="737.64" y2="466.57" style="fill:none;stroke:#263238;stroke-miterlimit:10"></line></g><g id="freepik--Bus--inject-70"><rect x="306.42" y="391.54" width="268.1" height="43.97" style="fill:#263238;stroke:#263238;stroke-miterlimit:10"></rect><path d="M123.42,290.51a4.14,4.14,0,0,0-4.14,4.13v10h3.26v-10a.88.88,0,0,1,.88-.88h2.22c.47,0,1,1.78,1.21,2.12A6.81,6.81,0,0,0,133,300h21.89v-9.52Zm28.23,6.27H133a3.43,3.43,0,0,1-2.85-1.52l-1-1.5h22.47Z" style="fill:#fff;stroke:#263238;stroke-miterlimit:10"></path><rect x="115.52" y="300.67" width="16.89" height="32.62" rx="2.73" style="fill:#fff;stroke:#263238;stroke-miterlimit:10"></rect><path d="M323.78,261.23H248.52a9.26,9.26,0,0,0-4.49,1.15L222.4,274.17h80.36Z" style="fill:#92E3A9;stroke:#263238;stroke-miterlimit:10"></path><path d="M299,274.17l16.71-11.28a9.47,9.47,0,0,1,5.32-1.66H468.88a9.53,9.53,0,0,1,5.39,1.7l17.17,11.78Z" style="fill:#92E3A9;stroke:#263238;stroke-miterlimit:10"></path><path d="M372.74,436.89A29.28,29.28,0,0,0,357.19,411v-3.43H343.44a29.31,29.31,0,1,0,0,58.61h13.75v-3.43A29.3,29.3,0,0,0,372.74,436.89Z" style="fill:#263238;stroke:#263238;stroke-miterlimit:10"></path><circle cx="357.19" cy="436.89" r="29.3" transform="translate(-64.82 62.24) rotate(-9.13)" style="fill:#263238;stroke:#263238;stroke-miterlimit:10"></circle><circle cx="357.19" cy="436.89" r="18.26" transform="translate(-183.89 597.19) rotate(-67.23)" style="fill:#fff;stroke:#263238;stroke-miterlimit:10"></circle><path d="M255.25,407.59H241.49a29.31,29.31,0,0,0,0,58.61h13.76a29.31,29.31,0,0,0,0-58.61Z" style="fill:#263238;stroke:#263238;stroke-miterlimit:10"></path><path d="M538,436.89A29.28,29.28,0,0,0,522.43,411v-3.43H508.67a29.31,29.31,0,0,0,0,58.61h13.76v-3.43A29.3,29.3,0,0,0,538,436.89Z" style="fill:#263238;stroke:#263238;stroke-miterlimit:10"></path><circle cx="522.43" cy="436.89" r="29.3" transform="translate(-91.9 142.95) rotate(-14.33)" style="fill:#263238;stroke:#263238;stroke-miterlimit:10"></circle><circle cx="522.43" cy="436.89" r="18.26" transform="translate(-92.28 143.74) rotate(-14.41)" style="fill:#fff;stroke:#263238;stroke-miterlimit:10"></circle><path d="M619.37,272.27H272.77V436h52.72v-8.65a31.7,31.7,0,0,1,31.7-31.69h0a31.69,31.69,0,0,1,31.7,31.69V436H490.56v-8.65a31.69,31.69,0,0,1,31.69-31.69h0A31.69,31.69,0,0,1,554,427.32V436H589.5l27.15-7.64a10.09,10.09,0,0,0,7.37-9.72V276.92A4.65,4.65,0,0,0,619.37,272.27Z" style="fill:#92E3A9;stroke:#263238;stroke-miterlimit:10"></path><path d="M272.77,272.27H163.05a8.78,8.78,0,0,0-8.79,8.78V419.21a12.9,12.9,0,0,0,3.78,9.12l3.29,3.29a14.06,14.06,0,0,0,9.93,4.11h110.3V281.05A8.79,8.79,0,0,0,272.77,272.27Z" style="fill:#92E3A9;stroke:#263238;stroke-miterlimit:10"></path><path d="M158.73,282V386.2l20.05,4.24a28.17,28.17,0,0,0,5.86.61h51a28.29,28.29,0,0,0,9.39-1.6l29.2-10.27V282a6.43,6.43,0,0,0-6.33-6.53H165.05A6.43,6.43,0,0,0,158.73,282Z" style="fill:#263238;stroke:#263238;stroke-miterlimit:10"></path><path d="M162.56,424.24H269.15s1.63,2.55,7,7" style="fill:none;stroke:#263238;stroke-miterlimit:10"></path><line x1="186.81" y1="418.5" x2="233.41" y2="418.5" style="fill:none;stroke:#263238;stroke-miterlimit:10"></line><path d="M271.06,401.9,240.9,412.79s4,6.35,5.91,7,22.34,0,22.34,0S276.81,415.31,271.06,401.9Z" style="fill:#263238;stroke:#263238;stroke-miterlimit:10"></path><path d="M259.24,409.79l10.11-2.24s0,6.74-1.5,7.48-9.78,2.15-9.78,2.15Z" style="fill:#fff;stroke:#263238;stroke-miterlimit:10"></path><path d="M260.74,414.1a4.68,4.68,0,1,1-4.68-4.68A4.68,4.68,0,0,1,260.74,414.1Z" style="fill:#fff;stroke:#263238;stroke-miterlimit:10"></path><path d="M251.53,415.24a3.54,3.54,0,1,1-3.53-3.53A3.54,3.54,0,0,1,251.53,415.24Z" style="fill:#fff;stroke:#263238;stroke-miterlimit:10"></path><path d="M159.08,401.9l23.22,10.89s-3.07,6.35-4.55,7-17.2,0-17.2,0S154.66,415.31,159.08,401.9Z" style="fill:#263238;stroke:#263238;stroke-miterlimit:10"></path><path d="M168.18,409.79l-7.78-2.24s0,6.74,1.15,7.48,7.53,2.15,7.53,2.15Z" style="fill:#fff;stroke:#263238;stroke-miterlimit:10"></path><path d="M167,414.1c0,2.58,1.61,4.68,3.6,4.68s3.6-2.1,3.6-4.68-1.61-4.68-3.6-4.68S167,411.51,167,414.1Z" style="fill:#fff;stroke:#263238;stroke-miterlimit:10"></path><ellipse cx="176.84" cy="415.24" rx="2.72" ry="3.54" style="fill:#fff;stroke:#263238;stroke-miterlimit:10"></ellipse><rect x="184.98" y="284.89" width="63.02" height="11.45" style="fill:#ccc;stroke:#263238;stroke-miterlimit:10"></rect><rect x="162.07" y="303.11" width="108.82" height="73.53" style="fill:#ccc;stroke:#263238;stroke-miterlimit:10"></rect><polygon points="162.07 363.21 222.17 303.11 195.48 303.11 162.07 336.51 162.07 363.21" style="fill:#fff;stroke:#263238;stroke-miterlimit:10"></polygon><path d="M227.77,370.27H240.5a116.55,116.55,0,0,0-47.05,0h33.71l6.48,8.33h3.45L228,370.39Z" style="fill:#263238;stroke:#263238;stroke-miterlimit:10"></path><rect x="198.11" y="428.52" width="23.32" height="7.18" style="fill:#fff;stroke:#263238;stroke-miterlimit:10"></rect><path d="M284.83,288.58v105.3h28.45c4.49,0,10.55-6.59,10.55-6.59l12.54-13h281V288.58Z" style="fill:#263238;stroke:#263238;stroke-miterlimit:10"></path><path d="M252.26,290.51a4.14,4.14,0,0,0-4.14,4.13v10h3.26v-10a.88.88,0,0,1,.88-.88h2.22c.47,0,1.05,1.78,1.21,2.12a6.81,6.81,0,0,0,6.17,4.15h21.88v-9.52Zm28.23,6.27H261.86a3.43,3.43,0,0,1-2.85-1.52l-1-1.5h22.47Z" style="fill:#fff;stroke:#263238;stroke-miterlimit:10"></path><rect x="244.36" y="300.67" width="16.89" height="32.62" rx="2.73" style="fill:#fff;stroke:#263238;stroke-miterlimit:10"></rect><rect x="288.36" y="300.99" width="38.26" height="52.3" style="fill:#fff;stroke:#263238;stroke-miterlimit:10"></rect><rect x="334.87" y="300.99" width="38.26" height="69.05" style="fill:#fff;stroke:#263238;stroke-miterlimit:10"></rect><rect x="381.38" y="300.99" width="38.26" height="69.05" style="fill:#fff;stroke:#263238;stroke-miterlimit:10"></rect><rect x="427.89" y="300.99" width="38.26" height="69.05" style="fill:#fff;stroke:#263238;stroke-miterlimit:10"></rect><rect x="474.4" y="300.99" width="38.26" height="58.79" style="fill:#fff;stroke:#263238;stroke-miterlimit:10"></rect><rect x="520.92" y="300.99" width="38.26" height="58.79" style="fill:#fff;stroke:#263238;stroke-miterlimit:10"></rect><rect x="567.43" y="300.99" width="17.71" height="38.52" style="fill:#fff;stroke:#263238;stroke-miterlimit:10"></rect><rect x="587.98" y="300.99" width="17.71" height="38.52" style="fill:#fff;stroke:#263238;stroke-miterlimit:10"></rect><rect x="288.36" y="359.68" width="38.26" height="15.57" style="fill:#fff;stroke:#263238;stroke-miterlimit:10"></rect><line x1="593.45" y1="395.81" x2="608.11" y2="395.81" style="fill:none;stroke:#263238;stroke-miterlimit:10"></line><line x1="593.45" y1="400.09" x2="608.11" y2="400.09" style="fill:none;stroke:#263238;stroke-miterlimit:10"></line><line x1="593.45" y1="404.36" x2="608.11" y2="404.36" style="fill:none;stroke:#263238;stroke-miterlimit:10"></line><line x1="593.45" y1="408.64" x2="608.11" y2="408.64" style="fill:none;stroke:#263238;stroke-miterlimit:10"></line><line x1="593.45" y1="412.91" x2="608.11" y2="412.91" style="fill:none;stroke:#263238;stroke-miterlimit:10"></line><line x1="593.45" y1="417.19" x2="608.11" y2="417.19" style="fill:none;stroke:#263238;stroke-miterlimit:10"></line><line x1="593.45" y1="421.46" x2="608.11" y2="421.46" style="fill:none;stroke:#263238;stroke-miterlimit:10"></line><line x1="593.45" y1="425.74" x2="608.11" y2="425.74" style="fill:none;stroke:#263238;stroke-miterlimit:10"></line><ellipse cx="208.12" cy="404.56" rx="11.1" ry="4.76" style="fill:#fff;stroke:#263238;stroke-miterlimit:10"></ellipse><rect x="325.19" y="396.62" width="8.88" height="4.44" style="fill:#fff;stroke:#263238;stroke-miterlimit:10"></rect></g></svg>
